# xmcd CD database file
#
# Track frame offsets:
#	150
#	25967
#	47819
#	65680
#	84857
#	103661
#	126879
#	150215
#	160556
#
# Disc length: 2553 seconds
#
# Revision: 0
# Processed by: cddbd v1.5.2PL0 Copyright (c) Steve Scherf et al.
# Submitted via: CDex 1.51
#
DISCID=6309f709
DTITLE=Tina Trumpp - Duality
DYEAR=2012
DGENRE=Jazz
TTITLE0=It All Goes By
TTITLE1=In Candlelight
TTITLE2=Nameless Lover
TTITLE3=Make Believe
TTITLE4=Duality
TTITLE5=The Portrait
TTITLE6=I Hear Every Word
TTITLE7=Sleepless - Interlude
TTITLE8=On A Sea
EXTD=YEAR: 2012
EXTT0=
EXTT1=
EXTT2=
EXTT3=
EXTT4=
EXTT5=
EXTT6=
EXTT7=
EXTT8=
PLAYORDER=
